<svg xmlns="http://www.w3.org/2000/svg" width="1470" height="980" viewBox="0 0 1470 980"><rect width="100%" height="100%" fill="#DDDDDD"/><path fill="#999999" d="M355.14 536.54h22.49v16h-69.2v-16h25.34v-72.92q0-4.33.26-8.91l-17.99 15.05q-1.56 1.21-3.07 1.51-1.51.31-2.85.05-1.35-.26-2.38-.91-1.04-.65-1.56-1.43l-6.75-9.25 38.15-32.44h17.56v109.25Zm56.83-31.14h38.06v-40.92q0-5.79.78-12.8l-38.84 53.72Zm56.66 0h15.74v12.37q0 1.73-1.13 2.98-1.12 1.26-3.2 1.26h-11.41v30.53h-18.6v-30.53h-52.77q-2.16 0-3.8-1.35-1.65-1.34-2.08-3.33l-2.25-10.81 59.26-79.15h20.24v78.03Zm28.2-77.94h86.41v9.26q0 4.15-.87 6.7-.86 2.55-1.73 4.28l-47.4 97.57q-1.47 3.03-4.15 5.15-2.68 2.12-7.18 2.12h-15.48l48.35-95.58q1.64-2.94 3.24-5.41 1.6-2.46 3.59-4.71h-59.85q-1.99 0-3.46-1.47t-1.47-3.46v-14.45ZM685.14 490q0 16.35-3.51 28.42-3.5 12.06-9.69 19.93-6.18 7.88-14.61 11.72-8.44 3.85-18.21 3.85-9.78 0-18.12-3.85-8.35-3.84-14.49-11.72-6.14-7.87-9.6-19.93-3.46-12.07-3.46-28.42 0-16.43 3.46-28.46 3.46-12.02 9.6-19.89 6.14-7.87 14.49-11.72 8.34-3.85 18.12-3.85 9.77 0 18.21 3.85 8.43 3.85 14.61 11.72 6.19 7.87 9.69 19.89 3.51 12.03 3.51 28.46Zm-22.06 0q0-13.58-1.99-22.49-1.99-8.91-5.32-14.19-3.33-5.27-7.66-7.39-4.32-2.12-8.99-2.12-4.59 0-8.87 2.12-4.28 2.12-7.57 7.39-3.28 5.28-5.23 14.19-1.95 8.91-1.95 22.49 0 13.58 1.95 22.49 1.95 8.91 5.23 14.19 3.29 5.27 7.57 7.39t8.87 2.12q4.67 0 8.99-2.12 4.33-2.12 7.66-7.39 3.33-5.28 5.32-14.19 1.99-8.91 1.99-22.49Zm159.42 33.91-11.33 11.16-29.33-29.33-29.58 29.5-11.33-11.16 29.58-29.67-28.2-28.2 11.25-11.24 28.2 28.2 28.02-28.03 11.42 11.25-28.11 28.11 29.41 29.41ZM902.42 465q0 10.47 5.41 15.96t15.35 5.49q5.19 0 9.26-1.64 4.06-1.64 6.83-4.5 2.77-2.85 4.2-6.74 1.43-3.9 1.43-8.4 0-5.1-1.56-9.12t-4.41-6.79q-2.86-2.77-6.79-4.24-3.94-1.47-8.61-1.47-4.84 0-8.74 1.6-3.89 1.6-6.66 4.45-2.77 2.86-4.24 6.8-1.47 3.93-1.47 8.6Zm-10.46 87.54 38.84-48.53q1.47-1.81 2.76-3.54 1.3-1.73 2.51-3.46-4.32 2.76-9.51 4.19-5.19 1.43-10.9 1.43-6.49 0-12.72-2.25t-11.07-6.79q-4.84-4.54-7.83-11.24-2.98-6.71-2.98-15.7 0-8.4 3.11-15.75 3.12-7.35 8.74-12.89 5.62-5.53 13.49-8.73t17.39-3.2q9.6 0 17.26 3.02 7.65 3.03 13.06 8.48 5.4 5.45 8.3 13.06 2.9 7.61 2.9 16.7 0 5.79-1 10.98-.99 5.19-2.81 9.99-1.81 4.8-4.41 9.39-2.59 4.58-5.79 9.08l-28.64 40.83q-1.47 2.08-4.41 3.5-2.94 1.43-6.66 1.43h-19.63Zm132.43-15.31q5.28 0 9.25-1.51 3.98-1.52 6.71-4.2 2.72-2.68 4.11-6.4 1.38-3.72 1.38-8.05 0-10.29-5.71-15.57-5.71-5.27-15.74-5.27-10.04 0-15.74 5.27-5.71 5.28-5.71 15.57 0 4.33 1.38 8.05 1.38 3.72 4.11 6.4 2.72 2.68 6.7 4.2 3.98 1.51 9.26 1.51Zm0-95.06q-4.76 0-8.22 1.47-3.46 1.47-5.75 3.93-2.29 2.47-3.37 5.67-1.09 3.2-1.09 6.74 0 3.72.91 7.23.91 3.5 3.07 6.23 2.17 2.72 5.71 4.36 3.55 1.65 8.74 1.65t8.74-1.65q3.54-1.64 5.7-4.36 2.17-2.73 3.08-6.23.9-3.51.9-7.23 0-3.54-1.12-6.74-1.13-3.2-3.37-5.67-2.25-2.46-5.71-3.93-3.46-1.47-8.22-1.47Zm21.1 45.15q11.42 3.72 16.87 11.37 5.45 7.66 5.45 18.73 0 8.3-3.16 15.05-3.15 6.75-8.86 11.51-5.71 4.75-13.71 7.35-8 2.59-17.69 2.59-9.69 0-17.69-2.59-8-2.6-13.71-7.35-5.71-4.76-8.87-11.51-3.15-6.75-3.15-15.05 0-11.07 5.45-18.73 5.44-7.65 16.86-11.37-9.08-3.81-13.62-10.81-4.54-7.01-4.54-16.87 0-7.09 2.9-13.24 2.89-6.14 8.08-10.68 5.19-4.54 12.42-7.09 7.22-2.55 15.87-2.55 8.65 0 15.87 2.55 7.22 2.55 12.41 7.09t8.09 10.68q2.9 6.15 2.9 13.24 0 9.86-4.54 16.87-4.54 7-13.63 10.81Zm125.08 2.68q0 16.35-3.5 28.42-3.5 12.06-9.69 19.93-6.18 7.88-14.62 11.72-8.43 3.85-18.2 3.85-9.78 0-18.13-3.85-8.34-3.84-14.48-11.72-6.15-7.87-9.61-19.93-3.46-12.07-3.46-28.42 0-16.43 3.46-28.46 3.46-12.02 9.61-19.89 6.14-7.87 14.48-11.72 8.35-3.85 18.13-3.85 9.77 0 18.2 3.85 8.44 3.85 14.62 11.72 6.19 7.87 9.69 19.89 3.5 12.03 3.5 28.46Zm-22.05 0q0-13.58-1.99-22.49-1.99-8.91-5.32-14.19-3.33-5.27-7.66-7.39-4.32-2.12-8.99-2.12-4.59 0-8.87 2.12-4.28 2.12-7.57 7.39-3.29 5.28-5.23 14.19-1.95 8.91-1.95 22.49 0 13.58 1.95 22.49 1.94 8.91 5.23 14.19 3.29 5.27 7.57 7.39t8.87 2.12q4.67 0 8.99-2.12 4.33-2.12 7.66-7.39 3.33-5.28 5.32-14.19 1.99-8.91 1.99-22.49Z"/></svg>